<?xml version="1.0" encoding="UTF-8" standalone="no"?>
<!DOCTYPE svg PUBLIC "-//W3C//DTD SVG 1.1//EN" "http://www.w3.org/Graphics/SVG/1.1/DTD/svg11.dtd">
<!-- Generated by Microsoft Visio, SVG Export API Workflow Diagram.svg API flowchart example -->
<svg xmlns="http://www.w3.org/2000/svg" xmlns:xlink="http://www.w3.org/1999/xlink" xmlns:ev="http://www.w3.org/2001/xml-events"
		width="8.53125in" height="7.3125in" viewBox="0 0 614.25 526.5" xml:space="preserve" color-interpolation-filters="sRGB"
		class="st19">
	<style type="text/css">
	<![CDATA[
		.st1 {fill:#6869ff;stroke:#c7c8c8;stroke-width:0.25}
		.st2 {fill:#ffffff;font-family:Segoe UI;font-size:1.16666em}
		.st3 {font-size:1em}
		.st4 {font-size:0.785725em}
		.st5 {fill:#497cff;stroke:#c7c8c8;stroke-width:0.25}
		.st6 {fill:#00c288;stroke:#c7c8c8;stroke-width:0.25}
		.st7 {fill:#feffff;font-family:Segoe UI;font-size:1.16666em}
		.st8 {marker-end:url(#mrkr4-23);stroke:#757d8a;stroke-linecap:round;stroke-linejoin:round;stroke-width:1}
		.st9 {fill:#757d8a;fill-opacity:1;stroke:#757d8a;stroke-opacity:1;stroke-width:0.28409090909091}
		.st10 {fill:#757d8a;stroke:#c7c8c8;stroke-width:0.25}
		.st11 {baseline-shift:32.4943%;font-size:0.649886em}
		.st12 {marker-end:url(#mrkr4-37);marker-start:url(#mrkr4-35);stroke:#757d8a;stroke-dasharray:5.04,3.6;stroke-linecap:round;stroke-linejoin:round;stroke-width:0.72}
		.st13 {fill:#757d8a;fill-opacity:1;stroke:#757d8a;stroke-opacity:1;stroke-width:0.22222222222222}
		.st14 {fill:#ffffff;stroke:#000000;stroke-linecap:round;stroke-linejoin:round;stroke-width:0.75;visibility:hidden}
		.st15 {fill:#497cff;font-family:Segoe UI;font-size:1.00001em;font-weight:bold}
		.st16 {font-size:1em;font-weight:normal}
		.st17 {font-family:Courier New;font-size:0.916665em;font-weight:normal}
		.st18 {marker-end:url(#mrkr4-37);marker-start:url(#mrkr4-35);stroke:#757d8a;stroke-linecap:round;stroke-linejoin:round;stroke-width:0.72}
		.st19 {fill:none;fill-rule:evenodd;font-size:12px;overflow:visible;stroke-linecap:square;stroke-miterlimit:3}
	]]>
	</style>

	<defs id="Markers">
		<g id="lend4">
			<path d="M 2 1 L 0 0 L 2 -1 L 2 1 " style="stroke:none"/>
		</g>
		<marker id="mrkr4-23" class="st9" refX="-7.04" orient="auto" markerUnits="strokeWidth" overflow="visible">
			<use xlink:href="#lend4" transform="scale(-3.52,-3.52) "/>
		</marker>
		<marker id="mrkr4-35" class="st13" refX="8.5" orient="auto" markerUnits="strokeWidth" overflow="visible">
			<use xlink:href="#lend4" transform="scale(4.5) "/>
		</marker>
		<marker id="mrkr4-37" class="st13" refX="-9" orient="auto" markerUnits="strokeWidth" overflow="visible">
			<use xlink:href="#lend4" transform="scale(-4.5,-4.5) "/>
		</marker>
	</defs>
	<g>
		<title>API flowchart example</title>
		<g id="shape115-1" transform="translate(250.867,-386.008)">
			<title>Rounded Rectangle.115</title>
			<desc>Standardize Inference (Docker/gRPC Service)</desc>
			<path d="M10.8 526.5 L97.2 526.5 A10.7998 10.7998 -180 0 0 108 515.7 L108 437.17 A10.7998 10.7998 -180 0 0 97.2 426.37
						 L10.8 426.37 A10.7998 10.7998 -180 0 0 0 437.17 L0 515.7 A10.7998 10.7998 -180 0 0 10.8 526.5 Z"
					class="st1"/>
			<text x="17.63" y="459.04" class="st2">Standardize <tspan x="25.37" dy="1.2em" class="st3">Inference</tspan><tspan
						x="20.04" dy="1.282em" class="st4">(Docker/gRPC </tspan><tspan x="35.25" dy="1.2em" class="st4">Service)</tspan></text>		</g>
		<g id="shape116-7" transform="translate(250.867,-215.437)">
			<title>Rounded Rectangle.116</title>
			<desc>Curie App Node api.example.com</desc>
			<path d="M10.8 526.5 L97.2 526.5 A10.7998 10.7998 -180 0 0 108 515.7 L108 437.17 A10.7998 10.7998 -180 0 0 97.2 426.37
						 L10.8 426.37 A10.7998 10.7998 -180 0 0 0 437.17 L0 515.7 A10.7998 10.7998 -180 0 0 10.8 526.5 Z"
					class="st5"/>
			<text x="4.21" y="474.04" class="st2">Curie App Node<tspan x="13.37" dy="1.282em" class="st4">api.example.com</tspan></text>		</g>
		<g id="shape117-11" transform="translate(45.0536,-235.749)">
			<title>Circle.117</title>
			<desc>DICOM Router</desc>
			<path d="M0 486.59 A39.9067 39.9067 0 0 1 79.81 486.59 A39.9067 39.9067 0 1 1 0 486.59 Z" class="st6"/>
			<text x="17.24" y="482.39" class="st7">DICOM <tspan x="19.19" dy="1.2em" class="st3">Router</tspan></text>		</g>
		<g id="shape118-15" transform="translate(484.867,-54.1328)">
			<title>Circle.118</title>
			<desc>PACS</desc>
			<path d="M0 486.59 A39.9067 39.9067 0 0 1 79.81 486.59 A39.9067 39.9067 0 1 1 0 486.59 Z" class="st6"/>
			<text x="23.42" y="490.79" class="st7">PACS</text>		</g>
		<g id="shape119-18" transform="translate(124.867,-266.707)">
			<title>Dynamic connector.119</title>
			<path d="M0 517.55 L114.46 517.45" class="st8"/>
		</g>
		<g id="shape120-24" transform="translate(250.867,-44.8672)">
			<title>Rounded Rectangle.120</title>
			<desc>3rd Party Server</desc>
			<path d="M10.8 526.5 L97.2 526.5 A10.7998 10.7998 -180 0 0 108 515.7 L108 437.17 A10.7998 10.7998 -180 0 0 97.2 426.37
						 L10.8 426.37 A10.7998 10.7998 -180 0 0 0 437.17 L0 515.7 A10.7998 10.7998 -180 0 0 10.8 526.5 Z"
					class="st10"/>
			<text x="7.2" y="480.64" class="st2">3<tspan dy="-0.235em" class="st11">rd</tspan><tspan dy="0.153em" class="st3"> </tspan>Party Server</text>		</g>
		<g id="shape121-29" transform="translate(295.867,-215.437)">
			<title>Dynamic connector.121</title>
			<path d="M9 532.62 L9 532.98 L9 590.47" class="st12"/>
		</g>
		<g id="group122-38" transform="translate(138.375,-243.857)">
			<title>com.lucidchart.MinimalTextBlock.122</title>
			<desc>1. Study Pushed to C-Store SCP</desc>
			<g id="shape123-39">
				<title>Sheet.123</title>
				<rect x="0" y="504.857" width="87.7501" height="21.6432" class="st14"/>
			</g>
			<g id="shape122-41">
				<text x="1.09" y="512.88" class="st15">1.<tspan class="st16"> </tspan><tspan class="st16">Study Pushed </tspan><tspan
							x="4.7" dy="1em" class="st16">to C</tspan><tspan class="st16">-</tspan><tspan class="st16">Store SCP</tspan></text>			</g>
		</g>
		<g id="group124-48" transform="translate(311.099,-337.219)">
			<title>com.lucidchart.MinimalTextBlock.124</title>
			<desc>2. Schedule &#38; Invoke Inference Service</desc>
			<g id="shape125-49">
				<title>Sheet.125</title>
				<rect x="0" y="504.698" width="122.018" height="21.78" class="st14"/>
			</g>
			<g id="shape124-51">
				<text x="4.69" y="512.72" class="st15">2.<tspan class="st16"> </tspan><tspan class="st16">Schedule &#38; Invoke </tspan><tspan
							x="16.18" dy="1em" class="st16">Inference Service</tspan></text>			</g>
		</g>
		<g id="group126-56" transform="translate(311.617,-157.781)">
			<title>com.lucidchart.MinimalTextBlock.126</title>
			<desc>3. Poll /curie/standardize/status endpoint</desc>
			<g id="shape127-57">
				<title>Sheet.127</title>
				<rect x="0" y="490.5" width="175.557" height="36" class="st14"/>
			</g>
			<g id="shape126-59">
				<text x="71.58" y="499.5" class="st15">3.<tspan class="st16"> </tspan><tspan class="st16">Poll </tspan><tspan
							x="5.57" dy="1.091em" class="st17">/curie/standardize/status</tspan><tspan class="st16"> </tspan><tspan
							x="64.09" dy="1em" class="st16">endpoint</tspan></text>			</g>
		</g>
		<g id="group128-66" transform="translate(382.5,-58.428)">
			<title>com.lucidchart.MinimalTextBlock.128</title>
			<desc>4. Update Headers &#38; Push to PACS</desc>
			<g id="shape129-67">
				<title>Sheet.129</title>
				<rect x="0" y="499.428" width="87.7501" height="27.0936" class="st14"/>
			</g>
			<g id="shape128-69">
				<text x="17.75" y="504.15" class="st15">4.<tspan class="st16"> </tspan><tspan class="st16">Update </tspan><tspan
							x="1.34" dy="1em" class="st16">Headers &#38; Push </tspan><tspan x="22.55" dy="1em" class="st16">to PACS</tspan></text>			</g>
		</g>
		<g id="shape130-75" transform="translate(295.867,-386.008)">
			<title>Dynamic connector.130</title>
			<path d="M9 532.62 L9 532.98 L9 590.47" class="st18"/>
		</g>
		<g id="shape131-82" transform="translate(363.367,-85.6328)">
			<title>Dynamic connector.131</title>
			<path d="M6.12 517.5 L6.48 517.5 L108.27 517.5" class="st18"/>
		</g>
	</g>
</svg>
