<?xml version="1.0" encoding="UTF-8" standalone="no"?>
<!DOCTYPE svg PUBLIC "-//W3C//DTD SVG 1.1//EN" "http://www.w3.org/Graphics/SVG/1.1/DTD/svg11.dtd">
<!-- Generated by Microsoft Visio, SVG Export DICOM Networking D2.svg Page-1 -->
<svg xmlns="http://www.w3.org/2000/svg" xmlns:xlink="http://www.w3.org/1999/xlink" xmlns:ev="http://www.w3.org/2001/xml-events"
		width="5.15625in" height="4.96875in" viewBox="0 0 371.25 357.75" xml:space="preserve" color-interpolation-filters="sRGB"
		class="st12">
	<style type="text/css">
	<![CDATA[
		.st1 {marker-end:url(#mrkr42-9);marker-start:url(#mrkr42-7);stroke:#757d8a;stroke-dasharray:8.75,6.25;stroke-linecap:round;stroke-linejoin:round;stroke-width:1.25}
		.st2 {fill:#757d8a;fill-opacity:1;stroke:#757d8a;stroke-opacity:1;stroke-width:0.3315649867374}
		.st3 {fill:#497cff;stroke:#c7c8c8;stroke-width:0.25}
		.st4 {fill:#feffff;font-family:Segoe UI;font-size:1.16666em}
		.st5 {font-size:1em}
		.st6 {fill:#00c288;stroke:#c7c8c8;stroke-width:0.25}
		.st7 {fill:#feffff;font-family:Segoe UI;font-size:0.833336em}
		.st8 {fill:none;stroke:none;stroke-width:0.25}
		.st9 {fill:#497cff;font-family:Segoe UI;font-size:1.00001em}
		.st10 {marker-end:url(#mrkr4-42);stroke:#757d8a;stroke-linecap:round;stroke-linejoin:round;stroke-width:1}
		.st11 {fill:#757d8a;fill-opacity:1;stroke:#757d8a;stroke-opacity:1;stroke-width:0.28409090909091}
		.st12 {fill:none;fill-rule:evenodd;font-size:12px;overflow:visible;stroke-linecap:square;stroke-miterlimit:3}
	]]>
	</style>

	<defs id="Markers">
		<g id="lend42">
			<path
					d="M 0 0.75 C -0.414214 0.75 -0.75 0.414214 -0.75 0 -0.75 -0.414214 -0.414214 -0.75 0 -0.75 0.414214 -0.75 0.75 -0.414214 0.75 0 0.75 0.414214 0.414214 0.75 0 0.75 Z "
					style="stroke:none"/>
		</g>
		<marker id="mrkr42-7" class="st2" refX="1.974" orient="auto" markerUnits="strokeWidth" overflow="visible">
			<use xlink:href="#lend42" transform="scale(3.016) "/>
		</marker>
		<marker id="mrkr42-9" class="st2" refX="-2.262" orient="auto" markerUnits="strokeWidth" overflow="visible">
			<use xlink:href="#lend42" transform="scale(-3.016,-3.016) "/>
		</marker>
		<g id="lend4">
			<path d="M 2 1 L 0 0 L 2 -1 L 2 1 " style="stroke:none"/>
		</g>
		<marker id="mrkr4-42" class="st11" refX="-7.04" orient="auto" markerUnits="strokeWidth" overflow="visible">
			<use xlink:href="#lend4" transform="scale(-3.52,-3.52) "/>
		</marker>
	</defs>
	<g>
		<title>Page-1</title>
		<g id="shape1-1" transform="translate(153.143,-301.5)">
			<title>Dotted-line report</title>
			<path d="M8.86 360.22 L8.86 360.58 L9.14 625.77" class="st1"/>
		</g>
		<g id="shape3-10" transform="translate(233.714,-37.3491)">
			<title>Rounded Rectangle</title>
			<desc>Curie DICOM_RS Provider</desc>
			<path d="M10.8 357.75 L97.2 357.75 A10.7998 10.7998 -180 0 0 108 346.95 L108 110.86 A10.7998 10.7998 -180 0 0 97.2 100.06
						 L10.8 100.06 A10.7998 10.7998 -180 0 0 0 110.86 L0 346.95 A10.7998 10.7998 -180 0 0 10.8 357.75 Z"
					class="st3"/>
			<text x="37.92" y="216.31" class="st4">Curie <tspan x="20.52" dy="1.2em" class="st5">DICOM_RS </tspan><tspan x="28.28"
						dy="1.2em" class="st5">Provider</tspan></text>		</g>
		<g id="shape5-15" transform="translate(27.9009,-215.222)">
			<title>Circle</title>
			<desc>Web Client Uploads Instances (STOW-RS)</desc>
			<path d="M0 317.84 A39.9067 39.9067 0 0 1 79.81 317.84 A39.9067 39.9067 0 1 1 0 317.84 Z" class="st6"/>
			<text x="15.66" y="302.84" class="st7">Web Client <tspan x="21.78" dy="1.2em" class="st5">Uploads </tspan><tspan
						x="19.51" dy="1.2em" class="st5">Instances </tspan><tspan x="15.53" dy="1.2em" class="st5">(STOW</tspan>-RS)</text>		</g>
		<g id="shape6-21" transform="translate(27.9009,-126.286)">
			<title>Circle.4</title>
			<desc>Web Client Queries Instances (QIDO-RS)</desc>
			<path d="M0 317.84 A39.9067 39.9067 0 0 1 79.81 317.84 A39.9067 39.9067 0 1 1 0 317.84 Z" class="st6"/>
			<text x="15.66" y="302.84" class="st7">Web Client <tspan x="23.01" dy="1.2em" class="st5">Queries </tspan><tspan
						x="19.51" dy="1.2em" class="st5">Instances </tspan><tspan x="16.87" dy="1.2em" class="st5">(QIDO</tspan>-RS)</text>		</g>
		<g id="shape7-27" transform="translate(27.9009,-37.3491)">
			<title>Circle.13</title>
			<desc>Web Client Requests Instance (WADO-RS)</desc>
			<path d="M0 317.84 A39.9067 39.9067 0 0 1 79.81 317.84 A39.9067 39.9067 0 1 1 0 317.84 Z" class="st6"/>
			<text x="15.66" y="302.84" class="st7">Web Client <tspan x="19.97" dy="1.2em" class="st5">Requests </tspan><tspan
						x="21.63" dy="1.2em" class="st5">Instance </tspan><tspan x="14.07" dy="1.2em" class="st5">(WADO</tspan>-RS)</text>		</g>
		<g id="shape11-33" transform="translate(112.214,-310.786)">
			<title>Sheet.11</title>
			<desc>DICOM Standard Interface</desc>
			<rect x="0" y="335.25" width="103.5" height="22.5" class="st8"/>
			<text x="6.8" y="342.9" class="st9">DICOM Standard <tspan x="28.66" dy="1.2em" class="st5">Interface</tspan></text>		</g>
		<g id="shape13-37" transform="translate(107.714,-263.832)">
			<title>Dynamic connector</title>
			<path d="M0 366.45 L51.33 366.7 A3 3 0 0 1 57.33 366.73 L114.46 367.01" class="st10"/>
		</g>
		<g id="shape14-43" transform="translate(107.714,-175.065)">
			<title>Dynamic connector.24</title>
			<path d="M0 366.62 L51.43 366.73 A3 3 0 0 1 57.43 366.74 L114.75 366.86" class="st10"/>
		</g>
		<g id="shape15-48" transform="translate(107.714,-86.1591)">
			<title>Dynamic connector.25</title>
			<path d="M0 366.65 L51.52 366.74 A3 3 0 0 1 57.52 366.75 L110.81 366.84" class="st10"/>
		</g>
	</g>
</svg>
