<?xml version="1.0" encoding="UTF-8" standalone="no"?>
<!DOCTYPE svg PUBLIC "-//W3C//DTD SVG 1.1//EN" "http://www.w3.org/Graphics/SVG/1.1/DTD/svg11.dtd">
<!-- Generated by Microsoft Visio, SVG Export DICOM Networking D1.svg Page-1 -->
<svg xmlns="http://www.w3.org/2000/svg" xmlns:xlink="http://www.w3.org/1999/xlink" xmlns:ev="http://www.w3.org/2001/xml-events"
		width="7.9375in" height="7.08594in" viewBox="0 0 571.5 510.188" xml:space="preserve" color-interpolation-filters="sRGB"
		class="st14">
	<style type="text/css">
	<![CDATA[
		.st1 {marker-end:url(#mrkr42-9);marker-start:url(#mrkr42-7);stroke:#757d8a;stroke-dasharray:8.75,6.25;stroke-linecap:round;stroke-linejoin:round;stroke-width:1.25}
		.st2 {fill:#757d8a;fill-opacity:1;stroke:#757d8a;stroke-opacity:1;stroke-width:0.3315649867374}
		.st3 {fill:#497cff;stroke:#c7c8c8;stroke-width:0.25}
		.st4 {fill:#feffff;font-family:Segoe UI;font-size:1.16666em}
		.st5 {font-size:1em}
		.st6 {fill:#00c288;stroke:#c7c8c8;stroke-width:0.25}
		.st7 {fill:#feffff;font-family:Segoe UI;font-size:0.833336em}
		.st8 {fill:none;stroke:none;stroke-width:0.25}
		.st9 {fill:#497cff;font-family:Segoe UI;font-size:1.00001em}
		.st10 {marker-end:url(#mrkr4-75);stroke:#757d8a;stroke-linecap:round;stroke-linejoin:round;stroke-width:1}
		.st11 {fill:#757d8a;fill-opacity:1;stroke:#757d8a;stroke-opacity:1;stroke-width:0.28409090909091}
		.st12 {marker-end:url(#mrkr4-75);marker-start:url(#mrkr4-82);stroke:#757d8a;stroke-linecap:round;stroke-linejoin:round;stroke-width:1}
		.st13 {marker-start:url(#mrkr4-82);stroke:#757d8a;stroke-linecap:round;stroke-linejoin:round;stroke-width:1}
		.st14 {fill:none;fill-rule:evenodd;font-size:12px;overflow:visible;stroke-linecap:square;stroke-miterlimit:3}
	]]>
	</style>

	<defs id="Markers">
		<g id="lend42">
			<path
					d="M 0 0.75 C -0.414214 0.75 -0.75 0.414214 -0.75 0 -0.75 -0.414214 -0.414214 -0.75 0 -0.75 0.414214 -0.75 0.75 -0.414214 0.75 0 0.75 0.414214 0.414214 0.75 0 0.75 Z "
					style="stroke:none"/>
		</g>
		<marker id="mrkr42-7" class="st2" refX="1.974" orient="auto" markerUnits="strokeWidth" overflow="visible">
			<use xlink:href="#lend42" transform="scale(3.016) "/>
		</marker>
		<marker id="mrkr42-9" class="st2" refX="-2.262" orient="auto" markerUnits="strokeWidth" overflow="visible">
			<use xlink:href="#lend42" transform="scale(-3.016,-3.016) "/>
		</marker>
		<g id="lend4">
			<path d="M 2 1 L 0 0 L 2 -1 L 2 1 " style="stroke:none"/>
		</g>
		<marker id="mrkr4-75" class="st11" refX="-7.04" orient="auto" markerUnits="strokeWidth" overflow="visible">
			<use xlink:href="#lend4" transform="scale(-3.52,-3.52) "/>
		</marker>
		<marker id="mrkr4-82" class="st11" refX="6.68" orient="auto" markerUnits="strokeWidth" overflow="visible">
			<use xlink:href="#lend4" transform="scale(3.52) "/>
		</marker>
	</defs>
	<g>
		<title>Page-1</title>
		<g id="shape1-1" transform="translate(153,-459)">
			<title>Dotted-line report</title>
			<path d="M9 512.66 L9 513.02 L9 913.48" class="st1"/>
		</g>
		<g id="shape2-10" transform="translate(405,-459)">
			<title>Dotted-line report.12</title>
			<path d="M9 512.66 L9 513.02 L9 915.73" class="st1"/>
		</g>
		<g id="shape3-17" transform="translate(234,-279)">
			<title>Rounded Rectangle</title>
			<desc>Curie Storage Application Entity</desc>
			<path d="M10.8 510.19 L97.2 510.19 A10.7998 10.7998 -180 0 0 108 499.39 L108 352.24 A10.7998 10.7998 -180 0 0 97.2 341.44
						 L10.8 341.44 A10.7998 10.7998 -180 0 0 0 352.24 L0 499.39 A10.7998 10.7998 -180 0 0 10.8 510.19 Z"
					class="st3"/>
			<text x="37.92" y="404.81" class="st4">Curie <tspan x="30.03" dy="1.2em" class="st5">Storage </tspan><tspan x="18.94"
						dy="1.2em" class="st5">Application </tspan><tspan x="36.67" dy="1.2em" class="st5">Entity</tspan></text>		</g>
		<g id="shape4-23" transform="translate(234,-63.6473)">
			<title>Rounded Rectangle.2</title>
			<desc>Curie Query/Retrieve Application Entity</desc>
			<path d="M10.8 510.19 L97.2 510.19 A10.7998 10.7998 -180 0 0 108 499.39 L108 352.24 A10.7998 10.7998 -180 0 0 97.2 341.44
						 L10.8 341.44 A10.7998 10.7998 -180 0 0 0 352.24 L0 499.39 A10.7998 10.7998 -180 0 0 10.8 510.19 Z"
					class="st3"/>
			<text x="37.92" y="404.81" class="st4">Curie <tspan x="7.53" dy="1.2em" class="st5">Query/Retrieve </tspan><tspan
						x="18.94" dy="1.2em" class="st5">Application </tspan><tspan x="36.67" dy="1.2em" class="st5">Entity</tspan></text>		</g>
		<g id="shape5-29" transform="translate(28.1867,-367.937)">
			<title>Circle</title>
			<desc>Remote AE Store Instances</desc>
			<path d="M0 470.28 A39.9067 39.9067 0 0 1 79.81 470.28 A39.9067 39.9067 0 1 1 0 470.28 Z" class="st6"/>
			<text x="15.63" y="461.28" class="st7">Remote AE <tspan x="28.27" dy="1.2em" class="st5">Store </tspan><tspan x="19.51"
						dy="1.2em" class="st5">Instances</tspan></text>		</g>
		<g id="shape6-34" transform="translate(28.1867,-279)">
			<title>Circle.4</title>
			<desc>Remote AE Requests Storage Commitment</desc>
			<path d="M0 470.28 A39.9067 39.9067 0 0 1 79.81 470.28 A39.9067 39.9067 0 1 1 0 470.28 Z" class="st6"/>
			<text x="15.63" y="455.28" class="st7">Remote AE <tspan x="19.97" dy="1.2em" class="st5">Requests </tspan><tspan
						x="22.79" dy="1.2em" class="st5">Storage </tspan><tspan x="10.92" dy="1.2em" class="st5">Commitment</tspan></text>		</g>
		<g id="shape7-40" transform="translate(28.1867,-152.584)">
			<title>Circle.13</title>
			<desc>Remote AE Queries for Instances</desc>
			<path d="M0 470.28 A39.9067 39.9067 0 0 1 79.81 470.28 A39.9067 39.9067 0 1 1 0 470.28 Z" class="st6"/>
			<text x="15.63" y="461.28" class="st7">Remote AE <tspan x="15.4" dy="1.2em" class="st5">Queries for </tspan><tspan
						x="19.51" dy="1.2em" class="st5">Instances</tspan></text>		</g>
		<g id="shape8-45" transform="translate(28.1867,-63.6473)">
			<title>Circle.16</title>
			<desc>Remote AE Receives Instances</desc>
			<path d="M0 470.28 A39.9067 39.9067 0 0 1 79.81 470.28 A39.9067 39.9067 0 1 1 0 470.28 Z" class="st6"/>
			<text x="15.63" y="461.28" class="st7">Remote AE <tspan x="21.03" dy="1.2em" class="st5">Receives </tspan><tspan
						x="19.51" dy="1.2em" class="st5">Instances</tspan></text>		</g>
		<g id="shape9-50" transform="translate(468,-152.584)">
			<title>Circle.17</title>
			<desc>Remote AE Requests Retrieve Instances</desc>
			<path d="M0 470.28 A39.9067 39.9067 0 0 1 79.81 470.28 A39.9067 39.9067 0 1 1 0 470.28 Z" class="st6"/>
			<text x="15.63" y="455.28" class="st7">Remote AE <tspan x="19.97" dy="1.2em" class="st5">Requests </tspan><tspan
						x="22.03" dy="1.2em" class="st5">Retrieve </tspan><tspan x="19.51" dy="1.2em" class="st5">Instances</tspan></text>		</g>
		<g id="shape10-56" transform="translate(468,-63.6473)">
			<title>Circle.18</title>
			<desc>Remote AE Receives Storage Commitment</desc>
			<path d="M0 470.28 A39.9067 39.9067 0 0 1 79.81 470.28 A39.9067 39.9067 0 1 1 0 470.28 Z" class="st6"/>
			<text x="15.63" y="455.28" class="st7">Remote AE <tspan x="21.03" dy="1.2em" class="st5">Receives </tspan><tspan
						x="22.79" dy="1.2em" class="st5">Storage </tspan><tspan x="10.92" dy="1.2em" class="st5">Commitment</tspan></text>		</g>
		<g id="shape11-62" transform="translate(112.5,-463.5)">
			<title>Sheet.11</title>
			<desc>DICOM Standard Interface</desc>
			<rect x="0" y="487.688" width="103.5" height="22.5" class="st8"/>
			<text x="6.8" y="495.34" class="st9">DICOM Standard <tspan x="28.66" dy="1.2em" class="st5">Interface</tspan></text>		</g>
		<g id="shape12-66" transform="translate(362.25,-22.5)">
			<title>Sheet.12</title>
			<desc>DICOM Standard Interface</desc>
			<rect x="0" y="487.688" width="103.5" height="22.5" class="st8"/>
			<text x="6.8" y="495.34" class="st9">DICOM Standard <tspan x="28.66" dy="1.2em" class="st5">Interface</tspan></text>		</g>
		<g id="shape13-70" transform="translate(108,-416.547)">
			<title>Dynamic connector</title>
			<path d="M0 518.89 L51 519.14 A3 3 0 0 1 57 519.17 L114.46 519.45" class="st10"/>
		</g>
		<g id="shape14-76" transform="translate(108,-310.203)">
			<title>Dynamic connector.24</title>
			<path d="M6.68 501.45 L7.04 501.45 L51 501.23 A3 3 0 1 1 57 501.2 L113.34 500.93" class="st12"/>
		</g>
		<g id="shape15-84" transform="translate(108,-201.194)">
			<title>Dynamic connector.25</title>
			<path d="M0 518.89 L51 519.14 A3 3 0 0 1 57 519.17 L114.46 519.45" class="st10"/>
		</g>
		<g id="shape16-89" transform="translate(346.5,-94.2573)">
			<title>Dynamic connector.26</title>
			<path d="M6.68 501.45 L7.04 501.45 L64.5 501.17 A3 3 0 1 1 70.5 501.14 L114.46 500.93" class="st12"/>
		</g>
		<g id="shape17-96" transform="translate(108,-112.257)">
			<title>Dynamic connector.27</title>
			<path d="M6.68 518.92 L7.04 518.93 L51 519.14 A3 3 0 0 1 57 519.17 L121.5 519.48" class="st13"/>
		</g>
		<g id="shape18-101" transform="translate(346.5,-201.787)">
			<title>Dynamic connector.28</title>
			<path d="M6.68 518.92 L7.04 518.93 L64.5 519.21 A3 3 0 0 1 70.5 519.24 L121.5 519.48" class="st13"/>
		</g>
	</g>
</svg>
