<?xml version="1.0" encoding="UTF-8" standalone="no"?>
<!DOCTYPE svg PUBLIC "-//W3C//DTD SVG 1.1//EN" "http://www.w3.org/Graphics/SVG/1.1/DTD/svg11.dtd">
<!-- Generated by Microsoft Visio, SVG Export DICOM Networking D3.svg Page-1 -->
<svg xmlns="http://www.w3.org/2000/svg" xmlns:xlink="http://www.w3.org/1999/xlink" xmlns:ev="http://www.w3.org/2001/xml-events"
		width="7.875in" height="3.53906in" viewBox="0 0 567 254.812" xml:space="preserve" color-interpolation-filters="sRGB"
		class="st15">
	<style type="text/css">
	<![CDATA[
		.st1 {marker-end:url(#mrkr42-9);marker-start:url(#mrkr42-7);stroke:#757d8a;stroke-dasharray:8.75,6.25;stroke-linecap:round;stroke-linejoin:round;stroke-width:1.25}
		.st2 {fill:#757d8a;fill-opacity:1;stroke:#757d8a;stroke-opacity:1;stroke-width:0.3315649867374}
		.st3 {fill:#497cff;stroke:#c7c8c8;stroke-width:0.25}
		.st4 {fill:#feffff;font-family:Segoe UI;font-size:1.16666em}
		.st5 {font-size:1em}
		.st6 {fill:#00c288;stroke:#c7c8c8;stroke-width:0.25}
		.st7 {fill:#feffff;font-family:Segoe UI;font-size:0.833336em}
		.st8 {fill:none;stroke:none;stroke-width:0.25}
		.st9 {fill:#497cff;font-family:Segoe UI;font-size:1.00001em}
		.st10 {marker-end:url(#mrkr4-44);stroke:#757d8a;stroke-linecap:round;stroke-linejoin:round;stroke-width:1}
		.st11 {fill:#757d8a;fill-opacity:1;stroke:#757d8a;stroke-opacity:1;stroke-width:0.28409090909091}
		.st12 {marker-start:url(#mrkr4-50);stroke:#757d8a;stroke-linecap:round;stroke-linejoin:round;stroke-width:1}
		.st13 {marker-start:url(#mrkr4-50);stroke:#757d8a;stroke-dasharray:7,5;stroke-linecap:round;stroke-linejoin:round;stroke-width:1}
		.st14 {marker-end:url(#mrkr4-44);stroke:#757d8a;stroke-dasharray:7,5;stroke-linecap:round;stroke-linejoin:round;stroke-width:1}
		.st15 {fill:none;fill-rule:evenodd;font-size:12px;overflow:visible;stroke-linecap:square;stroke-miterlimit:3}
	]]>
	</style>

	<defs id="Markers">
		<g id="lend42">
			<path
					d="M 0 0.75 C -0.414214 0.75 -0.75 0.414214 -0.75 0 -0.75 -0.414214 -0.414214 -0.75 0 -0.75 0.414214 -0.75 0.75 -0.414214 0.75 0 0.75 0.414214 0.414214 0.75 0 0.75 Z "
					style="stroke:none"/>
		</g>
		<marker id="mrkr42-7" class="st2" refX="1.974" orient="auto" markerUnits="strokeWidth" overflow="visible">
			<use xlink:href="#lend42" transform="scale(3.016) "/>
		</marker>
		<marker id="mrkr42-9" class="st2" refX="-2.262" orient="auto" markerUnits="strokeWidth" overflow="visible">
			<use xlink:href="#lend42" transform="scale(-3.016,-3.016) "/>
		</marker>
		<g id="lend4">
			<path d="M 2 1 L 0 0 L 2 -1 L 2 1 " style="stroke:none"/>
		</g>
		<marker id="mrkr4-44" class="st11" refX="-7.04" orient="auto" markerUnits="strokeWidth" overflow="visible">
			<use xlink:href="#lend4" transform="scale(-3.52,-3.52) "/>
		</marker>
		<marker id="mrkr4-50" class="st11" refX="6.68" orient="auto" markerUnits="strokeWidth" overflow="visible">
			<use xlink:href="#lend4" transform="scale(3.52) "/>
		</marker>
	</defs>
	<g>
		<title>Page-1</title>
		<g id="shape1-1" transform="translate(148.357,-207.848)">
			<title>Dotted-line report</title>
			<path d="M8.86 257.28 L8.86 257.64 L9.14 439.02" class="st1"/>
		</g>
		<g id="shape3-10" transform="translate(229.214,-27.8482)">
			<title>Rounded Rectangle</title>
			<desc>Curie Storage Application Entity</desc>
			<path d="M10.8 254.81 L97.2 254.81 A10.7998 10.7998 -180 0 0 108 244.01 L108 96.86 A10.7998 10.7998 -180 0 0 97.2 86.06
						 L10.8 86.06 A10.7998 10.7998 -180 0 0 0 96.86 L0 244.01 A10.7998 10.7998 -180 0 0 10.8 254.81 Z"
					class="st3"/>
			<text x="37.92" y="149.44" class="st4">Curie <tspan x="30.03" dy="1.2em" class="st5">Storage </tspan><tspan x="18.94"
						dy="1.2em" class="st5">Application </tspan><tspan x="36.67" dy="1.2em" class="st5">Entity</tspan></text>		</g>
		<g id="shape5-16" transform="translate(23.4009,-116.785)">
			<title>Circle</title>
			<desc>Remote AE Store Instances</desc>
			<path d="M0 214.91 A39.9067 39.9067 0 0 1 79.81 214.91 A39.9067 39.9067 0 1 1 0 214.91 Z" class="st6"/>
			<text x="15.63" y="205.91" class="st7">Remote AE <tspan x="28.27" dy="1.2em" class="st5">Store </tspan><tspan x="19.51"
						dy="1.2em" class="st5">Instances</tspan></text>		</g>
		<g id="shape6-21" transform="translate(23.4009,-27.8482)">
			<title>Circle.4</title>
			<desc>Target AE Receives Standardized Instances</desc>
			<path d="M0 214.91 A39.9067 39.9067 0 0 1 79.81 214.91 A39.9067 39.9067 0 1 1 0 214.91 Z" class="st6"/>
			<text x="18.63" y="199.91" class="st7">Target AE <tspan x="21.03" dy="1.2em" class="st5">Receives </tspan><tspan
						x="10.98" dy="1.2em" class="st5">Standardized </tspan><tspan x="19.51" dy="1.2em" class="st5">Instances</tspan></text>		</g>
		<g id="shape9-27" transform="translate(463.214,-116.785)">
			<title>Circle.17</title>
			<desc>Store Instances</desc>
			<path d="M0 214.91 A39.9067 39.9067 0 0 1 79.81 214.91 A39.9067 39.9067 0 1 1 0 214.91 Z" class="st6"/>
			<text x="28.27" y="211.91" class="st7">Store <tspan x="19.51" dy="1.2em" class="st5">Instances</tspan></text>		</g>
		<g id="shape10-31" transform="translate(463.214,-27.8482)">
			<title>Circle.18</title>
			<desc>Standardized Instances</desc>
			<path d="M0 214.91 A39.9067 39.9067 0 0 1 79.81 214.91 A39.9067 39.9067 0 1 1 0 214.91 Z" class="st6"/>
			<text x="10.98" y="211.91" class="st7">Standardized <tspan x="19.51" dy="1.2em" class="st5">Instances</tspan></text>		</g>
		<g id="shape11-35" transform="translate(107.714,-212.348)">
			<title>Sheet.11</title>
			<desc>DICOM Standard Interface</desc>
			<rect x="0" y="232.312" width="103.5" height="22.5" class="st8"/>
			<text x="6.8" y="239.96" class="st9">DICOM Standard <tspan x="28.66" dy="1.2em" class="st5">Interface</tspan></text>		</g>
		<g id="shape13-39" transform="translate(103.214,-165.395)">
			<title>Dynamic connector</title>
			<path d="M0 263.52 L51.08 263.77 A3 3 0 0 1 57.08 263.79 L114.46 264.07" class="st10"/>
		</g>
		<g id="shape14-45" transform="translate(103.214,-59.0516)">
			<title>Dynamic connector.24</title>
			<path d="M6.68 246.08 L7.04 246.07 L51.21 245.86 A3 3 0 1 1 57.21 245.83 L120.38 245.52" class="st12"/>
		</g>
		<g id="shape16-51" transform="translate(339.75,-76.9087)">
			<title>Dynamic connector.26</title>
			<path d="M6.68 263.68 L7.04 263.68 L123.46 263.97" class="st13"/>
		</g>
		<g id="shape18-56" transform="translate(342,-166.377)">
			<title>Dynamic connector.28</title>
			<path d="M0 263.13 L114.17 264.42" class="st14"/>
		</g>
		<g id="shape19-61" transform="translate(344.25,-153.563)">
			<title>Dynamic connector.19</title>
			<path d="M0 254.81 L113.25 336.5" class="st14"/>
		</g>
	</g>
</svg>
